<svg width="225" height="225" xmlns="http://www.w3.org/2000/svg" preserveAspectRatio="xMidYMid meet">

 <g>
  <title>background</title>
  <rect fill="none" id="canvas_background" height="402" width="582" y="-1" x="-1"/>
 </g>
 <g>
  <title>Layer 1</title>
  <path fill="#395c6b" id="svg_2" d="m137.600002,41.099997c-1.8,2.1 -2.3,3.5 -1.7,4.3c0.5,0.6 16.2,13.7 34.800001,29.1l33.900001,28l-102.300002,0.3l-102.300002,0.2l0,4.5l0,4.5l102.000002,0c56.100001,0 102.000002,0.3 102.000002,0.7c0,0.5 -15.5,13.6 -34.500001,29.3c-18.9,15.7 -34.400001,28.7 -34.400001,29c0,0.3 1.2,2 2.7,3.7l2.8,3.3l41.600001,-34.800001c22.9,-19.1 41.800001,-35.000001 42.000001,-35.300001c0.3,-0.5 -81.400001,-69.100001 -83.200001,-69.700001c-0.4,-0.2 -1.9,1.1 -3.4,2.9z"/>
 </g>
</svg>