<svg id="SvgjsSvg1001" width="288" height="288" xmlns="http://www.w3.org/2000/svg" version="1.1" xmlns:xlink="http://www.w3.org/1999/xlink" xmlns:svgjs="http://svgjs.com/svgjs"><defs id="SvgjsDefs1002"></defs><g id="SvgjsG1008" transform="matrix(1,0,0,1,0,0)"><svg xmlns="http://www.w3.org/2000/svg" width="288" height="288" version="1.0" viewBox="0 0 225 225"><g transform="matrix(.1 0 0 -.1 0 225)" fill="#395c6b" class="color000 svgShape"><path d="M252 2080 c-97 -20 -177 -84 -224 -180 l-23 -45 0 -530 c0 -520 0-531 21 -576 31 -67 87 -124 152 -156 l57 -28 545 -3 545 -3 225 -190 c124
-105 233 -195 243 -200 11 -6 24 -6 37 1 19 10 20 21 20 199 l0 188 85 5 c139
9 235 71 289 187 21 45 21 56 21 571 l0 525 -33 67 c-36 73 -79 114 -159 151
l-48 22 -855 2 c-470 0 -874 -3 -898 -7z m1783 -107 c51 -27 79 -57 104 -113
20 -43 21 -63 21 -529 0 -353 -3 -495 -12 -525 -16 -54 -90 -128 -144 -144
-23 -6 -82 -12 -132 -12 -62 0 -93 -4 -99 -12 -4 -7 -10 -83 -13 -169 l-5
-156 -198 169 -199 168 -535 0 c-393 0 -547 3 -577 12 -54 16 -128 90 -144
144 -16 56 -17 979 -1 1035 22 71 87 131 164 150 17 4 413 6 880 6 850 -2 850
-2 890 -24z" fill="#395c6b" class="color000 svgShape"></path><path d="M353 1643c-3-10-8-21-10-25-2-4 5-16 17-28 20-20 29-20 765-20 729 0 745 0 765 20 15 15 17 25 11 42l-8 23-767 3c-723 2-767 1-773-15zM356 1348c-13-19-14-25-2-43 13-20 19-20 771-20 752 0 758 0 771 20 12 18 11 24-2 43l-15 22-754 0-754 0-15-22zM360 1060c-15-15-17-25-11-42l8-23 768 0 768 0 8 23c6 17 4 27-11 42-20 20-36 20-765 20-729 0-745 0-765-20z" fill="#395c6b" class="color000 svgShape"></path></g></svg></g></svg>