<svg id="SvgjsSvg1001" width="288" height="288" xmlns="http://www.w3.org/2000/svg" version="1.1" xmlns:xlink="http://www.w3.org/1999/xlink" xmlns:svgjs="http://svgjs.com/svgjs"><defs id="SvgjsDefs1002"></defs><g id="SvgjsG1008" transform="matrix(1,0,0,1,0,0)"><svg xmlns="http://www.w3.org/2000/svg" width="288" height="288" version="1.0" viewBox="0 0 225 225"><g transform="matrix(.1 0 0 -.1 0 225)" fill="#395c6b" class="color000 svgShape"><path d="M1030 2234 c-87 -18 -211 -81 -284 -143 -35 -30 -81 -57 -110 -67-186 -60 -326 -195 -385 -371 -107 -319 24 -746 291 -948 102 -78 268 -145
357 -145 37 0 36 14 20 -232 -9 -152 -9 -176 6 -214 31 -82 94 -114 225 -114
98 0 143 13 185 55 51 52 55 81 41 325 -7 118 -12 216 -11 217 1 2 76 -79 166
-179 90 -100 179 -191 197 -201 40 -24 117 -25 158 -4 41 22 161 146 173 180
16 41 13 104 -5 142 -9 19 -93 102 -198 197 l-183 163 37 45 c125 149 186 358
161 552 -27 211 -117 393 -271 549 -78 79 -110 103 -180 138 -137 67 -257 84
-390 55z m325 -153 c189 -94 343 -303 392 -535 19 -90 13 -248 -13 -326 l-19
-55 -6 135 c-7 152 -21 207 -81 323 -48 92 -152 208 -240 267 -127 85 -288
144 -423 157 -56 5 -64 8 -52 20 7 7 45 25 83 39 60 21 83 24 170 22 97 -3
105 -5 189 -47z m-353 -155 c275 -53 479 -214 562 -446 l27 -74 -364 -364
-364 -364 -54 17 c-212 69 -360 225 -439 462 -42 125 -53 297 -26 403 72 285
331 428 658 366z m593 -728 c-4 -29 -20 -89 -36 -132 -32 -88 -36 -140 -15
-190 9 -21 81 -93 202 -201 104 -92 195 -175 202 -183 23 -29 12 -53 -50 -118
-92 -97 -84 -100 -288 129 -226 254 -245 264 -397 208 -44 -16 -106 -32 -139
-36 l-59 -7 290 291 c159 160 291 291 293 291 2 0 1 -24 -3 -52z m-342 -690
c4 -51 9 -150 13 -221 9 -165 7 -167 -117 -167 -127 0 -123 -6 -115 205 10
242 7 231 70 239 29 3 70 12 92 20 21 8 42 15 45 15 4 1 9 -41 12 -91z" fill="#395c6b" class="color000 svgShape"></path><path d="M299 572 c-126 -66 -160 -242 -66 -348 118 -135 336 -93 392 76 66
198 -140 370 -326 272z m160 -96 c39 -21 61 -58 61 -107 0 -56 -50 -109 -104
-109 -109 0 -165 121 -88 192 44 41 83 48 131 24z" fill="#395c6b" class="color000 svgShape"></path></g></svg></g></svg>