<svg id="SvgjsSvg1013" width="288" height="288" xmlns="http://www.w3.org/2000/svg" version="1.1" xmlns:xlink="http://www.w3.org/1999/xlink" xmlns:svgjs="http://svgjs.com/svgjs"><defs id="SvgjsDefs1014"></defs><g id="SvgjsG1015"><svg xmlns="http://www.w3.org/2000/svg" width="288" height="288" version="1.0" viewBox="0 0 400 400"><path d="M1870 3824 c-357 -33 -671 -153 -953 -365 -124 -93 -287 -261 -379-390 -144 -201 -265 -488 -310 -737 -29 -166 -29 -448 0 -614 45 -249 166
-536 310 -737 233 -327 597 -584 977 -691 303 -85 664 -88 980 -8 327 82 628
268 836 516 239 287 368 621 401 1042 11 141 3 300 -18 409 l-6 31 -854 0
-854 0 2 -307 3 -308 508 -3 c583 -3 526 11 481 -114 -94 -262 -257 -441 -508
-559 -112 -52 -210 -77 -353 -91 -348 -33 -652 74 -899 317 -108 107 -173 197
-234 328 -141 301 -141 663 0 964 61 131 126 221 234 328 245 241 553 351 888
317 62 -6 140 -18 173 -27 89 -23 256 -108 349 -179 l82 -63 244 236 244 237
-58 49 c-232 201 -534 344 -831 395 -111 19 -364 32 -455 24z" transform="matrix(.1 0 0 -.1 0 400)" fill="#ffffff" class="color000 svgShape"></path></svg></g></svg>